<?xml version="1.0" standalone="no"?>
<!DOCTYPE svg PUBLIC "-//W3C//DTD SVG 20010904//EN"
 "http://www.w3.org/TR/2001/REC-SVG-20010904/DTD/svg10.dtd">
<svg version="1.0" xmlns="http://www.w3.org/2000/svg"
 width="176.000000pt" height="176.000000pt" viewBox="0 0 176.000000 176.000000"
 preserveAspectRatio="xMidYMid meet">

<g transform="translate(0.000000,176.000000) scale(0.100000,-0.100000)"
fill="#000000" stroke="none">
<path d="M0 880 l0 -880 880 0 880 0 0 880 0 880 -880 0 -880 0 0 -880z m1196
679 c29 -18 43 -35 91 -114 7 -11 16 -28 19 -37 8 -23 12 -22 52 2 33 20 67
26 75 13 3 -5 -4 -33 -14 -63 -10 -30 -18 -61 -18 -68 -1 -7 -10 -32 -21 -54
-11 -23 -20 -46 -20 -52 0 -5 -12 -43 -27 -83 l-28 -74 -65 6 c-36 4 -78 11
-95 15 -33 10 -185 38 -225 42 -42 5 -38 40 7 66 66 38 68 39 56 54 -6 7 -25
40 -43 73 -43 79 -44 80 -61 48 -8 -16 -16 -30 -19 -33 -3 -3 -14 -24 -25 -47
-11 -24 -23 -43 -27 -43 -5 0 -8 -6 -8 -13 0 -19 -58 -97 -71 -97 -7 0 -35 14
-63 32 -28 17 -67 40 -86 50 -114 64 -141 81 -149 97 -7 13 4 41 47 117 109
192 89 183 421 184 249 0 266 -1 297 -21z m-625 -446 c21 -52 27 -68 42 -118
19 -60 37 -113 48 -140 11 -24 39 -106 39 -111 0 -13 -57 0 -90 21 l-39 25
-19 -28 c-10 -15 -22 -34 -25 -42 -4 -8 -16 -28 -26 -45 -11 -16 -20 -33 -20
-37 -1 -5 62 -8 138 -8 114 0 143 -3 155 -16 13 -13 16 -43 16 -174 0 -87 -3
-165 -6 -174 -5 -14 -28 -16 -149 -16 -79 0 -155 4 -168 9 -31 12 -76 57 -91
90 -6 15 -19 38 -29 51 -32 44 -117 194 -117 207 0 7 -4 13 -8 13 -5 0 -23 30
-42 66 -41 82 -38 127 14 215 39 65 45 89 21 89 -8 0 -15 3 -15 8 0 4 -10 12
-22 17 -13 6 -24 19 -26 31 -3 21 17 28 143 48 17 3 68 14 115 24 126 29 148
28 161 -5z m941 -60 c10 -9 18 -24 18 -34 0 -9 4 -19 8 -21 8 -3 40 -55 81
-133 22 -41 20 -134 -2 -169 -19 -28 -48 -80 -104 -186 -19 -36 -40 -72 -46
-80 -12 -15 -29 -44 -51 -85 -41 -77 -63 -88 -179 -94 l-102 -6 -3 -57 c-4
-74 -22 -76 -77 -11 -72 84 -128 148 -134 153 -28 23 -81 98 -81 114 0 12 22
44 48 72 26 28 63 70 84 95 20 24 52 61 72 82 20 20 36 42 36 47 0 6 11 10 25
10 24 0 25 -3 25 -60 l0 -60 90 0 c50 0 90 2 90 6 0 5 -48 93 -81 149 -54 90
-59 118 -22 132 10 4 20 10 23 13 4 6 44 29 145 84 11 6 22 13 25 16 12 12 66
39 79 40 8 0 23 -7 33 -17z"/>
</g>
</svg>
